<svg width="5.73" height="10.172" viewBox="0 -1.5 5.73 12.172" xmlns="http://www.w3.org/2000/svg">
    <g id="svgGroup" stroke-linecap="round" fill-rule="evenodd" font-size="9pt" stroke="#eeeeee" stroke-width="0.25mm" fill="#eeeeee" style="stroke:#eeeeee;stroke-width:0.25mm;fill:#eeeeee">
        <path d="M 5.561 5.473 L 0.92 10.014 A 0.525 0.525 0 0 1 0.54 10.172 A 0.652 0.652 0 0 1 0.533 10.172 A 0.534 0.534 0 0 1 0.264 10.102 A 0.517 0.517 0 0 1 0.07 9.911 A 0.516 0.516 0 0 1 0.002 9.686 A 0.629 0.629 0 0 1 0 9.639 A 0.543 0.543 0 0 1 0.152 9.258 L 4.418 5.086 L 0.152 0.914 A 0.543 0.543 0 0 1 0 0.533 A 0.564 0.564 0 0 1 0.024 0.365 A 0.498 0.498 0 0 1 0.07 0.261 A 0.517 0.517 0 0 1 0.264 0.07 A 0.534 0.534 0 0 1 0.533 0 A 0.537 0.537 0 0 1 0.92 0.152 L 5.561 4.699 Q 5.643 4.781 5.687 4.878 A 0.497 0.497 0 0 1 5.73 5.086 A 0.497 0.497 0 0 1 5.687 5.294 A 0.593 0.593 0 0 1 5.59 5.442 A 0.694 0.694 0 0 1 5.561 5.473 Z" vector-effect="non-scaling-stroke"/>
    </g>
</svg>
